<svg xmlns="http://www.w3.org/2000/svg" version="1.1" viewBox="0 0 960 489" xml:space="preserve"><g id="logo-black"><g id="test-tube_1_"><path id="tube_1_" fill="#fff" d="M753.6,412.9L753.6,412.9c-5,0-9.9-0.9-14.6-2.7c-19.7-7.5-30.1-28.9-24.7-48.7l-0.2-0.1l1.3-3.4L815.5,98 c1.5-3.8,0.8-13,0.1-18.1c-0.2-1.2-0.2-2.3,0.1-3.4l0.1-0.2c0.1-0.2,0.1-0.4,0.2-0.6c1.6-4.2,6.5-6.3,14.5-6.3 c9.6,0,22.9,3,36.5,8.2c11.4,4.4,21.8,9.9,29.1,15.4c8.6,6.5,12,12.3,10.1,17.3c-0.1,0.2-0.2,0.4-0.3,0.6l-0.1,0.2 c-0.5,1-1.2,1.8-2.1,2.5c-4.4,3.9-10.9,10.5-12,13.5L790.4,390.7l-0.2-0.1C783.1,404.2,769.2,412.9,753.6,412.9z M722.3,359.7 l-0.3,0.7c-6.4,17.2,2.3,36.6,19.5,43.2c3.9,1.5,7.9,2.2,12,2.2c13.9,0,26.2-8.3,31.3-21.3l0.4-0.9l99.6-258.9 c2.1-5.6,12-14.5,14-16.3l0.2-0.2c0.2-0.1,0.3-0.2,0.3-0.3l0.1-0.1c0.1-0.7-0.8-3.8-7.8-9.2c-6.7-5.1-16.4-10.2-27.3-14.4 c-12.6-4.9-25.4-7.8-34-7.8c-5.7,0-7.6,1.2-7.9,1.8v0.1c0,0.1,0,0.2,0,0.4v0.1c0.2,1.5,2.1,14.8-0.5,21.7L722.3,359.7z"/><path id="liquid_1_" fill="#fff" d="M850.4,195c0,0-13.8,15.9-26.4,21.6s-21.9,4.2-33.2,10.8s-17,15.8-17,15.8l-46,119.7 c-5,13.5,2.4,29.3,16.1,34.6c13.7,5.3,29.2-1.7,34.5-15.1l0,0L850.4,195z M804.1,264.1c2.2-1,4.8,0,5.7,2.2c1,2.2,0,4.8-2.2,5.7 c-2.2,1-4.8,0-5.7-2.2C800.8,267.6,801.9,265,804.1,264.1z M785.6,244.4c1.5-0.6,3.2,0,3.8,1.5c0.6,1.5,0,3.2-1.5,3.8 c-1.5,0.6-3.2,0-3.8-1.5C783.5,246.7,784.2,245,785.6,244.4z M765.3,312.1c-2.2,1-4.8,0-5.7-2.2c-1-2.2,0-4.8,2.2-5.7 c2.2-1,4.8,0,5.7,2.2C768.6,308.6,767.6,311.1,765.3,312.1z M769.4,296.4c-1.8-4.1,0-8.9,4.1-10.8c4.1-1.8,8.9,0,10.8,4.1 c1.8,4.1,0,8.9-4.1,10.8C776,302.3,771.2,300.5,769.4,296.4z M779.8,337.9c1.5-0.6,3.2,0,3.8,1.5c0.6,1.5,0,3.2-1.5,3.8 c-1.5,0.6-3.2,0-3.8-1.5C777.7,340.3,778.3,338.6,779.8,337.9z"/><ellipse id="top_1_" cx="859.8" cy="95.7" fill="#fff" rx="7.3" ry="27.8" transform="matrix(0.359 -0.9333 0.9333 0.359 461.7702 863.8233)"/></g></g></svg>