<svg xmlns="http://www.w3.org/2000/svg" width="533.333" height="533.333" preserveAspectRatio="xMidYMid meet" version="1.0" viewBox="0 0 400 400"><metadata>Created by potrace 1.11, written by Peter Selinger 2001-2013</metadata><g fill="#000" stroke="none"><path d="M385 1920 l0 -1670 1576 0 1576 0 6 78 c17 224 30 452 26 455 -2 2 -74 0 -159 -5 -86 -4 -655 -7 -1265 -6 l-1110 3 0 1285 c0 707 3 1340 7 1408 l8 122 -333 0 -332 0 0 -1670z" transform="translate(0.000000,400.000000) scale(0.100000,-0.100000)"/><path d="M2131 3553 c-5 -21 -15 -58 -21 -83 -20 -79 -590 -1901 -627 -2005 -19 -55 -42 -112 -49 -127 -8 -15 -14 -32 -14 -38 0 -7 94 -10 288 -10 l288 0 29 133 c15 72 38 161 49 197 l21 65 407 3 c380 2 408 1 416 -15 8 -15 74 -284 88 -360 l4 -23 314 0 313 0 -39 97 c-40 101 -647 2017 -675 2135 l-17 67 -382 1 -383 0 -10 -37z m391 -440 c3 -10 62 -222 133 -471 70 -249 124 -459 121 -467 -5 -13 -46 -15 -270 -15 -146 0 -267 4 -270 8 -4 7 167 656 240 910 15 52 37 69 46 35z" transform="translate(0.000000,400.000000) scale(0.100000,-0.100000)"/></g></svg>