<svg xmlns="http://www.w3.org/2000/svg" xmlns:svg="http://www.w3.org/2000/svg" id="svg5" width="350" height="300" version="1.1" viewBox="0 0 350 300"><g id="layer1"><g id="test-tube_1_" transform="matrix(0.48743032,0,0,0.48743032,-219.71936,32.456178)"><path id="tube_1_" fill="#fff" d="m 753.6,412.9 v 0 c -5,0 -9.9,-0.9 -14.6,-2.7 -19.7,-7.5 -30.1,-28.9 -24.7,-48.7 l -0.2,-0.1 1.3,-3.4 100.1,-260 c 1.5,-3.8 0.8,-13 0.1,-18.1 -0.2,-1.2 -0.2,-2.3 0.1,-3.4 l 0.1,-0.2 c 0.1,-0.2 0.1,-0.4 0.2,-0.6 1.6,-4.2 6.5,-6.3 14.5,-6.3 9.6,0 22.9,3 36.5,8.2 11.4,4.4 21.8,9.9 29.1,15.4 8.6,6.5 12,12.3 10.1,17.3 -0.1,0.2 -0.2,0.4 -0.3,0.6 l -0.1,0.2 c -0.5,1 -1.2,1.8 -2.1,2.5 -4.4,3.9 -10.9,10.5 -12,13.5 l -101.3,263.6 -0.2,-0.1 c -7.1,13.6 -21,22.3 -36.6,22.3 z m -31.3,-53.2 -0.3,0.7 c -6.4,17.2 2.3,36.6 19.5,43.2 3.9,1.5 7.9,2.2 12,2.2 13.9,0 26.2,-8.3 31.3,-21.3 l 0.4,-0.9 99.6,-258.9 c 2.1,-5.6 12,-14.5 14,-16.3 l 0.2,-0.2 c 0.2,-0.1 0.3,-0.2 0.3,-0.3 l 0.1,-0.1 c 0.1,-0.7 -0.8,-3.8 -7.8,-9.2 -6.7,-5.1 -16.4,-10.2 -27.3,-14.4 -12.6,-4.9 -25.4,-7.8 -34,-7.8 -5.7,0 -7.6,1.2 -7.9,1.8 v 0.1 c 0,0.1 0,0.2 0,0.4 v 0.1 c 0.2,1.5 2.1,14.8 -0.5,21.7 z" opacity=".1"/><path id="liquid_1_" fill="#fff" d="m 850.4,195 c 0,0 -13.8,15.9 -26.4,21.6 -12.6,5.7 -21.9,4.2 -33.2,10.8 -11.3,6.6 -17,15.8 -17,15.8 l -46,119.7 c -5,13.5 2.4,29.3 16.1,34.6 13.7,5.3 29.2,-1.7 34.5,-15.1 v 0 z m -46.3,69.1 c 2.2,-1 4.8,0 5.7,2.2 1,2.2 0,4.8 -2.2,5.7 -2.2,1 -4.8,0 -5.7,-2.2 -1.1,-2.2 0,-4.8 2.2,-5.7 z m -18.5,-19.7 c 1.5,-0.6 3.2,0 3.8,1.5 0.6,1.5 0,3.2 -1.5,3.8 -1.5,0.6 -3.2,0 -3.8,-1.5 -0.6,-1.5 0.1,-3.2 1.5,-3.8 z m -20.3,67.7 c -2.2,1 -4.8,0 -5.7,-2.2 -1,-2.2 0,-4.8 2.2,-5.7 2.2,-1 4.8,0 5.7,2.2 1.1,2.2 0.1,4.7 -2.2,5.7 z m 4.1,-15.7 c -1.8,-4.1 0,-8.9 4.1,-10.8 4.1,-1.8 8.9,0 10.8,4.1 1.8,4.1 0,8.9 -4.1,10.8 -4.2,1.8 -9,0 -10.8,-4.1 z m 10.4,41.5 c 1.5,-0.6 3.2,0 3.8,1.5 0.6,1.5 0,3.2 -1.5,3.8 -1.5,0.6 -3.2,0 -3.8,-1.5 -0.6,-1.4 0,-3.1 1.5,-3.8 z" opacity=".1"/><ellipse id="top_1_" cx="859.8" cy="95.7" fill="#fff" opacity=".1" rx="7.3" ry="27.8" transform="matrix(0.359,-0.9333,0.9333,0.359,461.7702,863.8233)"/></g><path id="path2931" fill="#fff" d="m 270.40065,195.40512 c 0,0.40322 -0.4637,0.7258 -1.04836,0.7258 -0.66534,0.0605 -1.12904,-0.2621 -1.12904,-0.7258 0,-0.40323 0.4637,-0.72581 1.04836,-0.72581 0.60486,-0.0605 1.12904,0.2621 1.12904,0.72581 z m -6.27013,-0.90726 c -0.141,0.40323 0.262,0.86693 0.86694,0.9879 0.52417,0.2016 1.12903,0 1.24999,-0.40322 0.121,-0.40323 -0.26198,-0.86694 -0.86692,-1.04839 -0.52421,-0.14114 -1.10891,0.0605 -1.25001,0.46371 z m 8.91126,-0.34274 c -0.58466,0.14114 -0.9879,0.52419 -0.9274,0.9879 0.0604,0.40323 0.58466,0.66532 1.1895,0.52419 0.5847,-0.14114 0.9879,-0.52419 0.92742,-0.92741 -0.0606,-0.38307 -0.60482,-0.64516 -1.18952,-0.58468 z m 13.2661,-77.25788 c -27.96365,0 -49.35472,21.22979 -49.35472,49.19343 0,22.35882 14.07254,41.49184 34.17331,48.22569 2.58063,0.46371 3.48789,-1.12902 3.48789,-2.43951 0,-1.25 -0.0604,-8.14514 -0.0604,-12.379 0,0 -14.11286,3.02419 -17.07657,-6.00805 0,0 -2.29838,-5.86692 -5.60481,-7.37901 0,0 -4.61692,-3.16532 0.32266,-3.10484 0,0 5.02015,0.40323 7.78226,5.20161 4.41528,7.78223 11.81446,5.54434 14.69752,4.2137 0.46374,-3.2258 1.7742,-5.4637 3.22579,-6.79435 -11.2701,-1.24999 -22.64104,-2.88305 -22.64104,-22.27816 0,-5.54435 1.53222,-8.3266 4.75803,-11.87498 -0.52418,-1.31048 -2.23791,-6.71369 0.5242,-13.68948 4.2137,-1.31048 13.91126,5.44353 13.91126,5.44353 4.03225,-1.12902 8.36691,-1.7137 12.66126,-1.7137 4.29433,0 8.62901,0.58468 12.66124,1.7137 0,0 9.69758,-6.77417 13.91126,-5.44353 2.76211,6.99595 1.0484,12.379 0.5242,13.68948 3.22581,3.56854 5.20159,6.35079 5.20159,11.87498 0,19.45559 -11.87496,21.00801 -23.14512,22.27816 1.85487,1.59274 3.42743,4.61693 3.42743,9.35482 0,6.79434 -0.0604,15.20158 -0.0604,16.8548 0,1.31048 0.9274,2.90322 3.48789,2.43951 20.16121,-6.69353 33.83055,-25.82655 33.83055,-48.18537 0,-27.96364 -22.68142,-49.19343 -50.64504,-49.19343 z m -29.75801,69.53613 c -0.262,0.2016 -0.20166,0.66532 0.141,1.04838 0.32268,0.32257 0.7863,0.46371 1.0484,0.2016 0.262,-0.2016 0.20166,-0.66532 -0.141,-1.04838 -0.32266,-0.32257 -0.7863,-0.46371 -1.0484,-0.2016 z m -2.17738,-1.63306 c -0.141,0.2621 0.0604,0.58467 0.4637,0.78628 0.32266,0.20161 0.7258,0.14115 0.86692,-0.14114 0.141,-0.2621 -0.0606,-0.58467 -0.4637,-0.78628 -0.40322,-0.12096 -0.7258,-0.0605 -0.86692,0.14114 z m 6.53221,7.1774 c -0.32266,0.2621 -0.20166,0.86693 0.262,1.24999 0.46374,0.46371 1.0484,0.5242 1.3105,0.2016 0.262,-0.2621 0.141,-0.86693 -0.262,-1.24999 -0.44356,-0.46371 -1.0484,-0.5242 -1.3105,-0.2016 z m -2.29837,-2.96371 c -0.32266,0.2016 -0.32266,0.72581 0,1.18952 0.32269,0.46371 0.86695,0.66532 1.12905,0.46371 0.32266,-0.2621 0.32266,-0.78629 0,-1.25 -0.28234,-0.46371 -0.80646,-0.66532 -1.12905,-0.40323 z" opacity=".1" style="fill:#fff;stroke-width:.201612"/><path style="opacity:.914966;fill:#fff;fill-opacity:0;stroke-width:.90284;stroke-miterlimit:10" id="path3014" d="M 340.37052,514.71784 C 267.08044,485.29174 212.94324,424.49401 192.1348,348.24461 l -3.19428,-11.70496 35.53864,-92.53294 35.53864,-92.53294 6.99701,-7.22945 c 7.57355,-7.82513 8.52503,-10.46737 5.72158,-15.88865 -1.95867,-3.78764 -9.29902,-10.21528 -16.65967,-14.58816 l -6.64647,-3.94859 6.64803,-6.16539 c 38.41612,-35.627115 80.88722,-56.123288 133.497,-64.424465 14.6671,-2.314287 51.21009,-2.800603 67.71297,-0.901127 22.13817,2.548097 45.48194,8.163673 64.41368,15.495355 23.90471,9.257558 52.10413,25.894595 71.47682,42.169749 29.39621,24.695988 53.86466,58.593298 68.05322,94.277368 30.88788,77.68264 19.05172,171.10277 -30.39757,239.92118 -17.89495,24.90434 -42.3995,47.98522 -68.24225,64.27751 -18.83412,11.87378 -47.96691,24.66366 -56.17887,24.66366 -5.04593,0 -9.6572,-2.5403 -11.07692,-6.10215 -0.65811,-1.65111 -1.09138,-19.30273 -1.30175,-53.03384 -0.27606,-44.26463 -0.50852,-51.28792 -1.86729,-56.41378 -2.05123,-7.73819 -6.88216,-17.61458 -10.9081,-22.3006 l -3.24643,-3.77869 3.85745,-0.5194 c 49.84125,-6.71103 68.31272,-13.50405 85.16198,-31.31893 12.46738,-13.18188 18.93318,-27.55439 23.0963,-51.33967 1.84804,-10.55841 1.6293,-40.50505 -0.34952,-47.85049 -2.50728,-9.30713 -8.99936,-21.31881 -16.46463,-30.46293 l -6.81153,-8.34335 1.88622,-7.00492 c 4.16824,-15.47968 3.15764,-36.80396 -2.55073,-53.82219 l -2.46643,-7.3531 -6.53914,-0.26514 c -11.37776,-0.46132 -27.86346,6.03908 -51.67175,20.37444 l -11.26323,6.78178 -8.14782,-1.92681 c -34.8003,-8.22965 -75.29986,-8.30648 -107.85241,-0.20461 -4.14148,1.03076 -8.04125,1.8741 -8.66616,1.8741 -0.62491,0 -5.13972,-2.51748 -10.03292,-5.59441 -12.20806,-7.67663 -27.61463,-15.33744 -37.09302,-18.44425 -6.04013,-1.97982 -9.62507,-2.5951 -15.12028,-2.5951 -8.51406,0 -8.20983,-0.35192 -11.91333,13.78044 -4.02906,15.37465 -3.92689,37.17405 0.23435,50.00463 l 1.3614,4.19767 -6.25317,7.79372 c -11.48082,14.30928 -16.07281,26.74737 -17.02207,46.10688 -0.29218,5.95874 -0.0624,16.11569 0.5107,22.57099 4.67994,52.7177 28.00289,79.0476 78.65581,88.79667 8.06677,1.5526 29.30438,4.64722 31.89265,4.64722 0.45082,0 -0.69296,1.67431 -2.54173,3.72069 -4.27283,4.72951 -9.09054,14.84301 -11.05196,23.2006 l -1.52454,6.49604 -5.00156,1.88312 c -11.72103,4.41306 -25.73541,5.62726 -35.52359,3.07776 -12.36494,-3.22066 -21.35097,-10.48681 -31.34734,-25.34764 -9.31205,-13.8435 -16.73915,-19.81606 -30.31945,-24.38165 -5.64079,-1.89638 -8.21113,-2.29693 -12.3486,-1.92432 -5.92824,0.53386 -7.86611,1.71859 -7.86611,4.80897 0,2.62018 5.22131,8.02816 11.88562,12.31055 8.95664,5.75542 15.98291,15.02352 23.05875,30.41592 6.4581,14.04863 6.86116,14.75219 11.10044,19.37635 8.62902,9.41241 20.35493,14.68797 37.39989,16.82643 9.06091,1.13678 26.74662,0.70388 34.60157,-0.84698 l 3.83707,-0.75757 v 32.42583 c 0,35.58754 -0.10664,36.36135 -5.38749,39.09217 -4.90595,2.53697 -11.22874,1.70168 -23.05196,-3.04537 z"/><path id="path3133" fill="#fff" d="m 115.79525,93.827612 c 3.43707,6.748348 -2.96267,9.811468 -3.63098,10.151848 l -12.871343,6.55563 -6.62046,-12.99864 12.871343,-6.555628 c 6.77221,-3.449222 9.57391,1.516534 10.25144,2.84679 z M 101.88857,86.2554 c 0.10661,-0.0543 6.19768,-2.956203 3.17394,-8.893028 -1.2578,-2.469566 -3.46556,-5.423224 -9.023683,-2.592366 l -11.88001,6.050725 5.84974,11.485393 z m 22.04686,-37.707586 24.20453,47.523241 a 13.373214,13.373214 0 0 1 -5.83007,17.933145 l -47.523243,24.20452 a 13.373214,13.373214 0 0 1 -17.93314,-5.83007 L 52.648977,84.855412 a 13.373214,13.373214 0 0 1 5.83007,-17.933143 L 106.00229,42.717745 a 13.373214,13.373214 0 0 1 17.93314,5.830069 z m -0.37978,42.515639 c -1.74812,-3.432251 -5.7822,-8.736254 -13.26321,-6.74164 l -0.0592,-0.116158 c 2.85286,-3.41292 3.65211,-7.521359 1.43232,-11.879698 -0.5673,-1.113851 -4.93177,-10.46998 -17.597843,-4.0189 l -20.20844,10.292555 21.17917,41.583238 c 20.404153,-10.39224 22.392483,-11.06827 25.569523,-14.16734 1.9029,-1.85495 6.93013,-7.132824 2.94764,-14.952057 z" opacity=".1" style="stroke-width:.178571"/><path id="path3142" fill="#fff" d="M 197.56945,23.602266 168.36938,5.6167438 C 167.0314,4.7926269 165.26532,5.225346 164.43184,6.5785368 L 146.4791,35.725384 c -0.83349,1.353193 -0.42534,3.125114 0.91262,3.949236 l 29.20008,17.985521 c 1.33798,0.824123 3.11166,0.396081 3.94514,-0.95711 L 198.4897,27.55618 c 0.83349,-1.353194 0.41774,-3.129792 -0.92023,-3.953918 z m -39.31262,16.053341 -5.04786,-3.109192 10.0112,-16.253509 5.05546,3.113868 -10.0112,16.25351 z m 8.85457,-20.027951 c -1.61928,-0.997375 -2.11678,-3.117946 -1.12408,-4.729614 0.99269,-1.611666 3.11034,-2.121458 4.72961,-1.124081 1.61167,0.992694 2.11678,3.117946 1.12408,4.729615 -0.99737,1.619267 -3.11034,2.121457 -4.72961,1.12408 z m 10.06731,31.682714 -5.04785,-3.109186 4.86981,-7.906292 c 1.16126,-1.885346 2.617,-4.333838 0.0322,-5.925916 -2.63036,-1.620144 -4.29756,0.184274 -5.60399,2.305289 l -4.95409,8.043131 -5.04786,-3.109185 10.01121,-16.253512 4.8426,2.982759 -1.36729,2.219842 0.0685,0.04216 c 1.46325,-0.860428 3.94173,-1.189913 6.39724,0.322539 5.10869,3.146646 3.98461,7.099735 1.28748,11.478604 z" opacity=".1" style="stroke-width:.0892857"/><path id="path3151" fill="#fff" d="m 236.61314,29.327108 c -2.56413,1.897208 -5.9133,1.799733 -9.13709,4.185022 -1.1941,0.883516 -2.10853,1.88472 -2.83064,2.983907 a 3.3301786,3.3301786 0 0 0 -0.66261,-1.254399 c -1.09155,-1.297923 -3.01452,-1.564023 -4.41771,-0.611547 -1.57696,1.070392 -1.93299,3.225682 -0.81053,4.742717 0.6736,0.910394 1.72279,1.37799 2.77505,1.348766 l 13.668,18.472722 c 0.46929,0.634251 1.36385,0.767982 1.99811,0.298697 l 0.76559,-0.566468 c 0.63426,-0.469285 0.76799,-1.363856 0.29871,-1.998108 l -3.34217,-4.517037 c 0.92756,-1.579588 2.25918,-3.309611 4.69249,-5.110023 2.56419,-1.897244 5.91331,-1.799733 9.13711,-4.185028 2.30488,-1.705387 3.57013,-3.848051 4.4153,-6.292254 0.2048,-0.592173 0.10187,-1.247664 -0.27079,-1.751333 l -8.60679,-11.632329 c -0.82821,-1.119354 -2.53743,-1.000704 -3.20374,0.221949 -1.07845,1.978825 -2.53055,4.231012 -4.46829,5.664746 z" opacity=".1" style="stroke-width:.0595238"/><path id="path3160" fill="#fff" d="m 325.86178,54.525892 c 8.35044,15.262526 3.84127,31.842688 -11.59385,40.287557 -14.79871,8.096681 -33.28858,2.684257 -41.38525,-12.114462 -8.09669,-14.79871 -2.68426,-33.288578 12.11445,-41.38526 7.20521,-3.942117 14.7129,-4.616057 21.76749,-2.813715 l -3.45071,10.983692 C 288.7617,45.504743 274.82758,62.097987 283.05409,77.134 c 5.10468,9.330095 16.69481,12.813424 25.81999,7.820829 10.59208,-5.795143 10.40685,-15.560356 8.87846,-19.839616 l -15.18703,8.309133 -5.03387,-9.200658 25.4663,-13.933136 c 0.99756,1.234115 1.89011,2.455618 2.86384,4.23534 z" opacity=".1" style="stroke-width:.122951"/><path id="path3169" fill="#fff" d="m 285.58978,263.07092 -3.15001,-8.59576 -7.60493,4.18962 -2.83345,-5.14323 c -1.19455,-2.16831 -1.29658,-4.86714 2.10942,-6.74354 l 3.45733,-1.90468 -3.71746,-6.74786 c 0,0 -3.4324,1.19299 -6.43212,2.84556 -6.26289,3.45027 -8.26532,9.50158 -4.47954,16.37348 l 3.32776,6.04048 -6.9617,3.83527 4.36633,7.92568 6.9617,-3.83526 10.55534,19.15987 8.56806,-4.72022 -10.55535,-19.15987 z" opacity=".1" style="stroke-width:.0976562"/><path id="path3178" fill="#fff" d="m 200.88298,249.49961 c -5.13705,-1.97109 -10.8899,0.59122 -12.86099,5.72827 -1.9711,5.13706 0.59122,10.88991 5.72827,12.861 5.13706,1.97109 10.88991,-0.59122 12.861,-5.72828 1.97109,-5.13705 -0.60164,-10.89389 -5.72828,-12.86099 z m 4.27038,8.40456 -7.36082,0.8336 c -0.22354,0.0218 -0.37996,-0.1936 -0.304,-0.39159 l 2.65878,-6.92929 c 0.06,-0.1563 0.24341,-0.22936 0.38529,-0.16297 2.69005,1.15172 4.46767,3.59104 4.8833,6.30869 0.0209,0.16344 -0.0991,0.32059 -0.26255,0.34156 z m 18.402,-17.70801 -34.40682,-13.20193 c -3.38649,-1.2994 -7.19289,0.39597 -8.49229,3.78246 l -13.19793,34.3964 c -1.3034,3.39692 0.39197,7.20331 3.77846,8.50271 l 34.3964,13.19793 c 3.39692,1.3034 7.19289,-0.39596 8.49229,-3.78246 l 13.20193,-34.40681 c 1.30986,-3.38249 -0.38554,-7.1889 -3.77204,-8.4883 z m -24.49735,0.72546 c 0.4318,-1.12536 1.68618,-1.68406 2.81154,-1.25226 l 4.72025,1.81117 c 1.12537,0.4318 1.68406,1.68618 1.25226,2.81154 l -0.61572,1.60468 c -0.072,0.18756 -0.29708,0.24463 -0.44381,0.12856 -1.14572,-0.84605 -2.41151,-1.53496 -3.7661,-2.05472 -1.40671,-0.53975 -2.85411,-0.87995 -4.32538,-1.00217 -0.19714,-0.0159 -0.3223,-0.21931 -0.25433,-0.39644 l 0.63171,-1.64636 z m -10.27379,0.48095 1.32646,-0.59081 c 1.09579,-0.48806 2.37745,0.004 2.8655,1.0995 l 0.49449,1.1102 c 0.0706,0.15859 -0.0157,0.35257 -0.1912,0.40479 -0.82596,0.22102 -1.63664,0.49571 -2.42964,0.84891 -0.77858,0.34678 -1.53548,0.76165 -2.23784,1.22135 -0.15617,0.0955 -0.36216,0.0403 -0.4288,-0.12867 l -0.49448,-1.1102 c -0.49206,-1.08536 -2.8e-4,-2.36702 1.0955,-2.85507 z m 3.46673,30.59381 c -7.29399,-2.79872 -10.92476,-10.96981 -8.13004,-18.25339 2.79471,-7.28358 10.96981,-10.92475 18.25339,-8.13004 7.29399,2.79872 10.92874,10.95939 8.13003,18.25338 -2.79071,7.27316 -10.9698,10.92476 -18.25338,8.13005 z" opacity=".1" style="stroke-width:.111607"/><path id="path3187" d="m 122.47681,264.33279 -2.12351,-3.08933 c -0.58673,-0.8536 -1.75397,-1.06986 -2.60757,-0.48313 l -6.29066,4.324 -4.32401,-6.29066 c -0.58673,-0.85359 -1.75397,-1.06986 -2.60757,-0.48312 l -3.08933,2.12351 c -0.8536,0.58674 -1.06986,1.75398 -0.48313,2.60757 l 4.32401,6.29066 -6.290657,4.32401 c -0.8536,0.58673 -1.06986,1.75398 -0.48313,2.60757 l 2.123507,3.08933 c 0.58673,0.8536 1.75398,1.06986 2.60757,0.48313 l 6.29067,-4.324 4.324,6.29066 c 0.58673,0.85359 1.75398,1.06986 2.60757,0.48312 l 3.08934,-2.12351 c 0.85359,-0.58673 1.06985,-1.75398 0.48312,-2.60757 l -4.32401,-6.29066 6.29067,-4.32401 c 0.85359,-0.58673 1.06986,-1.75397 0.48312,-2.60757 z m 3.14016,-29.36981 -28.155577,-5.21659 c -1.67539,-0.31041 -3.3503,0.54725 -4.07586,2.08971 l -16.66146,35.38492 -4.46527,-13.47251 a 3.7509375,3.7509375 0 0 0 -2.87604,-2.50771 l -9.3875,-1.73929 c -1.52675,-0.28287 -2.99472,0.72516 -3.27781,2.25306 l -1.02474,5.53087 c -0.28288,1.52675 0.72631,2.99494 2.25306,3.27781 l 5.02618,0.93123 6.74587,20.76352 c 1.01712,2.54468 2.83022,3.89365 4.97804,4.29159 1.98996,0.36869 5.31281,-0.0883 7.14004,-3.62078 l 19.265877,-41.06648 22.4657,4.16239 c 1.52675,0.28287 2.99494,-0.72631 3.27781,-2.25306 l 1.02475,-5.53087 c 0.28308,-1.5279 -0.72632,-2.99494 -2.25307,-3.27781 z" opacity=".1" style="fill:#fff;stroke-width:.117188"/><path id="path3214" fill="#fff" d="m 35.084744,249.32424 c -2.922536,0.90308 -5.924736,0.66085 -8.536656,-0.46738 l -4.86981,2.26576 0.4662,-5.45505 a 12.529259,12.529259 0 0 1 -2.59937,-4.62466 c -2.03804,-6.59544 1.61467,-13.58212 8.15881,-15.6043 6.5436,-2.02202 13.500531,1.68621 15.538568,8.28165 2.038418,6.59668 -1.613968,13.58191 -8.157742,15.60398 z m 2.768854,-13.97618 -0.01027,-0.0332 c -1.064914,-3.44625 -4.25459,-5.15265 -8.44501,-3.85778 l -4.52588,1.39852 3.69041,11.94282 4.45883,-1.37781 c 4.223032,-1.30475 5.896791,-4.62641 4.83193,-8.07248 z m -5.62168,5.10213 -1.32379,0.40906 -1.87675,-6.0735 1.32379,-0.40906 c 1.94429,-0.6008 3.57735,0.10889 4.168089,2.02063 l 0.01027,0.0332 c 0.595715,1.92784 -0.357319,3.41882 -2.301609,4.01962 z" opacity=".1" style="stroke-width:.185185"/><path id="path3223" fill="#fff" d="m 94.327687,169.28163 c -4.274164,-4.28434 -9.966266,-6.64078 -16.015388,-6.64078 -12.485904,0 -22.645988,10.16008 -22.645988,22.64596 0,3.98857 1.040489,7.88533 3.019459,11.32302 l -3.213277,11.73102 12.006444,-3.15209 c 3.305094,1.80555 7.02842,2.75426 10.823151,2.75426 h 0.01014 c 12.475683,0 22.860212,-10.16007 22.860212,-22.64595 0,-6.04916 -2.570643,-11.73103 -6.844824,-16.01544 z m -16.015388,34.84625 c -3.386707,0 -6.701985,-0.90791 -9.588844,-2.62166 l -0.683462,-0.40801 -7.12022,1.8668 1.897357,-6.9468 -0.448834,-0.71412 c -1.887163,-2.99904 -2.876648,-6.45717 -2.876648,-10.01728 0,-10.3743 8.446334,-18.82062 18.830845,-18.82062 5.029038,0 9.752053,1.9586 13.301959,5.51871 3.549916,3.56011 5.732905,8.28309 5.722704,13.31217 0,10.38448 -8.66055,18.83081 -19.034857,18.83081 z m 10.323293,-14.09765 c -0.561046,-0.28559 -3.345887,-1.6525 -3.86614,-1.83611 -0.520236,-0.19385 -0.897668,-0.28566 -1.27511,0.28559 -0.377432,0.57125 -1.458724,1.83618 -1.795353,2.22383 -0.326428,0.37739 -0.66305,0.42838 -1.224106,0.14279 -3.325489,-1.66275 -5.508488,-2.96849 -7.701681,-6.73257 -0.581444,-0.99971 0.581454,-0.92827 1.662753,-3.09092 0.183607,-0.37739 0.0918,-0.70386 -0.05097,-0.98945 -0.142821,-0.28566 -1.27511,-3.07048 -1.744359,-4.20279 -0.459028,-1.10169 -0.928277,-0.94864 -1.27511,-0.96908 -0.326418,-0.0201 -0.70386,-0.0201 -1.081292,-0.0201 -0.377432,0 -0.989485,0.14279 -1.509738,0.70386 -0.520236,0.57125 -1.97897,1.93816 -1.97897,4.72298 0,2.78488 2.029984,5.4779 2.305398,5.85529 0.285625,0.37746 3.988556,6.08996 9.670447,8.54838 3.590719,1.55052 4.998446,1.68313 6.793802,1.41791 1.091493,-0.1632 3.345894,-1.36691 3.815126,-2.69302 0.469249,-1.3261 0.469249,-2.45842 0.326435,-2.69301 -0.13261,-0.25504 -0.510042,-0.39784 -1.071098,-0.67331 z" opacity=".1" style="stroke-width:.102007"/><path id="path3346" d="m 56.764585,26.091149 c -0.0991,-1.59 -1.04285,-3.0153 -2.46225,-3.71872 -2.57238,-1.27686 -13.47519,-3.45656 -13.47519,-3.45656 0,0 -10.90274,-2.17968 -13.76838,-1.98999 -1.58076,0.10371 -2.99991,1.05655 -3.70274,2.48622 -1.27567,2.59101 -2.41718,8.30081 -2.41718,8.30081 0,0 -1.1415,5.7098 -0.96006,8.59212 0.0991,1.59 1.05275,2.96576 2.47215,3.66918 2.57244,1.27688 13.47519,3.45656 13.47519,3.45656 0,0 10.90274,2.17968 13.76838,1.98999 1.58074,-0.10364 2.99001,-1.00701 3.69284,-2.43668 1.27567,-2.59101 2.41717,-8.30081 2.41717,-8.30081 0,0 1.14151,-5.7098 0.96007,-8.59212 z m -22.99513,9.57812 2.0728,-10.36813 8.07615,7.00599 z" opacity=".1" style="fill:#fff;stroke-width:.0651042"/><path style="opacity:.914966;fill:#fff;fill-opacity:0;stroke-width:1.27681;stroke-miterlimit:10" id="path3410" d="m -84.269327,602.64694 c -62.289143,-1.95266 -107.013813,-5.39537 -125.683083,-9.67454 -19.48722,-4.46664 -37.8178,-18.47104 -45.82164,-35.00731 -10.60941,-21.9195 -15.977,-70.17168 -16.04967,-144.2793 -0.0737,-75.16673 5.21272,-123.23197 15.98728,-145.35951 8.95293,-18.38646 25.98377,-31.9153 45.94616,-36.49839 21.77808,-4.99994 64.01965,-7.83329 147.538767,-9.89615 109.561437,-2.70608 237.627573,1.9492 272.241793,9.89615 19.96239,4.58309 36.99323,18.11193 45.94616,36.49839 10.77046,22.11913 16.02616,69.93117 15.97852,145.35951 -0.0462,73.29457 -5.46395,122.60557 -15.78146,143.64089 -7.01575,14.3037 -20.3773,26.4858 -35.65511,32.50775 -13.31333,5.24763 -46.58363,9.00622 -102.27365,11.55402 -39.666506,1.81471 -160.633963,2.56697 -202.374067,1.25849 z M 17.06007,453.38221 c 38.777386,-22.05726 70.031309,-40.57712 69.453157,-41.15527 -1.069543,-1.06954 -142.086294,-81.53367 -142.891181,-81.53367 -0.241994,0 -0.440001,36.8142 -0.440001,81.80932 0,67.15427 0.302182,81.73539 1.686855,81.39651 0.927767,-0.22704 33.413796,-18.45965 72.19117,-40.51689 z" opacity=".1"/><path style="opacity:.914966;fill:#fff;fill-opacity:0;stroke-width:1.27681;stroke-miterlimit:10" id="path3449" d="m -84.269327,602.64694 c -62.289143,-1.95266 -107.013813,-5.39537 -125.683083,-9.67454 -19.48722,-4.46664 -37.8178,-18.47104 -45.82164,-35.00731 -10.60941,-21.9195 -15.977,-70.17168 -16.04967,-144.2793 -0.0737,-75.16673 5.21272,-123.23197 15.98728,-145.35951 8.95293,-18.38646 25.98377,-31.9153 45.94616,-36.49839 21.77808,-4.99994 64.01965,-7.83329 147.538767,-9.89615 109.561437,-2.70608 237.627573,1.9492 272.241793,9.89615 19.96239,4.58309 36.99323,18.11193 45.94616,36.49839 10.77046,22.11913 16.02616,69.93117 15.97852,145.35951 -0.0462,73.29457 -5.46395,122.60557 -15.78146,143.64089 -7.01575,14.3037 -20.3773,26.4858 -35.65511,32.50775 -13.31333,5.24763 -46.58363,9.00622 -102.27365,11.55402 -39.666506,1.81471 -160.633963,2.56697 -202.374067,1.25849 z M 17.06007,453.38221 c 38.777386,-22.05726 70.031309,-40.57712 69.453157,-41.15527 -1.069543,-1.06954 -142.086294,-81.53367 -142.891181,-81.53367 -0.241994,0 -0.440001,36.8142 -0.440001,81.80932 0,67.15427 0.302182,81.73539 1.686855,81.39651 0.927767,-0.22704 33.413796,-18.45965 72.19117,-40.51689 z"/><path style="opacity:.914966;fill:#fff;fill-opacity:0;stroke-width:1.27681;stroke-miterlimit:10" id="path3488" d="m -84.269327,602.64694 c -62.289143,-1.95266 -107.013813,-5.39537 -125.683083,-9.67454 -19.48722,-4.46664 -37.8178,-18.47104 -45.82164,-35.00731 -10.60941,-21.9195 -15.977,-70.17168 -16.04967,-144.2793 -0.0737,-75.16673 5.21272,-123.23197 15.98728,-145.35951 8.95293,-18.38646 25.98377,-31.9153 45.94616,-36.49839 21.77808,-4.99994 64.01965,-7.83329 147.538767,-9.89615 109.561437,-2.70608 237.627573,1.9492 272.241793,9.89615 19.96239,4.58309 36.99323,18.11193 45.94616,36.49839 10.77046,22.11913 16.02616,69.93117 15.97852,145.35951 -0.0462,73.29457 -5.46395,122.60557 -15.78146,143.64089 -7.01575,14.3037 -20.3773,26.4858 -35.65511,32.50775 -13.31333,5.24763 -46.58363,9.00622 -102.27365,11.55402 -39.666506,1.81471 -160.633963,2.56697 -202.374067,1.25849 z M 17.06007,453.38221 c 38.777386,-22.05726 70.031309,-40.57712 69.453157,-41.15527 -1.069543,-1.06954 -142.086294,-81.53367 -142.891181,-81.53367 -0.241994,0 -0.440001,36.8142 -0.440001,81.80932 0,67.15427 0.302182,81.73539 1.686855,81.39651 0.927767,-0.22704 33.413796,-18.45965 72.19117,-40.51689 z"/><path style="opacity:.914966;fill:#fff;fill-opacity:0;stroke-width:1.27681;stroke-miterlimit:10" id="path3527" d="m -84.269327,602.64694 c -62.289143,-1.95266 -107.013813,-5.39537 -125.683083,-9.67454 -19.48722,-4.46664 -37.8178,-18.47104 -45.82164,-35.00731 -10.60941,-21.9195 -15.977,-70.17168 -16.04967,-144.2793 -0.0737,-75.16673 5.21272,-123.23197 15.98728,-145.35951 8.95293,-18.38646 25.98377,-31.9153 45.94616,-36.49839 21.77808,-4.99994 64.01965,-7.83329 147.538767,-9.89615 109.561437,-2.70608 237.627573,1.9492 272.241793,9.89615 19.96239,4.58309 36.99323,18.11193 45.94616,36.49839 10.77046,22.11913 16.02616,69.93117 15.97852,145.35951 -0.0462,73.29457 -5.46395,122.60557 -15.78146,143.64089 -7.01575,14.3037 -20.3773,26.4858 -35.65511,32.50775 -13.31333,5.24763 -46.58363,9.00622 -102.27365,11.55402 -39.666506,1.81471 -160.633963,2.56697 -202.374067,1.25849 z M 17.06007,453.38221 c 38.777386,-22.05726 70.031309,-40.57712 69.453157,-41.15527 -1.069543,-1.06954 -142.086294,-81.53367 -142.891181,-81.53367 -0.241994,0 -0.440001,36.8142 -0.440001,81.80932 0,67.15427 0.302182,81.73539 1.686855,81.39651 0.927767,-0.22704 33.413796,-18.45965 72.19117,-40.51689 z"/><path id="path3800" fill="#fff" d="m 34.147129,112.86336 -24.9385495,7.92311 c -1.87818,0.59671 -2.91699,2.60295 -2.32028,4.48113 l 7.9231095,24.93854 c 0.59671,1.87818 2.60295,2.917 4.48112,2.32029 l 24.93856,-7.92312 c 1.87817,-0.5967 2.91698,-2.60294 2.32027,-4.48113 l -7.92311,-24.93853 c -0.59671,-1.87819 -2.60294,-2.917 -4.48112,-2.32029 z m -11.76088,33.68822 c -1.87817,0.59671 -3.88441,-0.4421 -4.48112,-2.32029 -0.59671,-1.87818 0.4421,-3.88442 2.32028,-4.48113 1.87818,-0.59671 3.88442,0.4421 4.48112,2.32029 0.59671,1.87818 -0.44209,3.88442 -2.32028,4.48113 z m 11.16092,-3.54588 -2.43257,0.77284 c -0.42587,0.1353 -0.8873,-0.0797 -1.05,-0.49586 -2.17125,-5.55402 -8.1452,-8.63788 -13.92167,-7.20849 -0.43365,0.10735 -0.87556,-0.14545 -1.01084,-0.57124 l -0.77284,-2.43257 c -0.1471,-0.463 0.1223,-0.95746 0.59257,-1.07941 7.96645,-2.06502 16.22647,2.2185 19.13483,9.90781 0.17184,0.45443 -0.0765,0.95982 -0.53948,1.10692 z m 7.29928,-2.31902 -2.43251,0.77282 c -0.43649,0.13867 -0.90161,-0.0943 -1.05803,-0.52482 -3.46985,-9.54724 -13.70279,-14.84693 -23.50354,-12.1699 -0.44193,0.12061 -0.90065,-0.12468 -1.03933,-0.56117 l -0.77281,-2.4325 c -0.14527,-0.45726 0.11562,-0.94652 0.57776,-1.07525 12.02605,-3.3508 24.58905,3.20072 28.77306,14.89842 0.1621,0.45151 -0.0874,0.94713 -0.5446,1.0924 z" opacity=".1" style="stroke-width:.0743376"/></g></svg>