<?xml version="1.0" encoding="UTF-8" standalone="no"?>
<svg
   xmlns:dc="http://purl.org/dc/elements/1.1/"
   xmlns:cc="http://creativecommons.org/ns#"
   xmlns:rdf="http://www.w3.org/1999/02/22-rdf-syntax-ns#"
   xmlns:svg="http://www.w3.org/2000/svg"
   xmlns="http://www.w3.org/2000/svg"
   xmlns:sodipodi="http://sodipodi.sourceforge.net/DTD/sodipodi-0.dtd"
   xmlns:inkscape="http://www.inkscape.org/namespaces/inkscape"
   viewBox="0 -256 1792 1792"
   id="svg2989"
   version="1.1"
   inkscape:version="0.48.3.1 r9886"
   width="100%"
   height="100%"
   sodipodi:docname="rss_font_awesome.svg">
  <metadata
     id="metadata2999">
    <rdf:RDF>
      <cc:Work
         rdf:about="">
        <dc:format>image/svg+xml</dc:format>
        <dc:type
           rdf:resource="http://purl.org/dc/dcmitype/StillImage" />
      </cc:Work>
    </rdf:RDF>
  </metadata>
  <defs
     id="defs2997" />
  <sodipodi:namedview
     pagecolor="#ffffff"
     bordercolor="#666666"
     borderopacity="1"
     objecttolerance="10"
     gridtolerance="10"
     guidetolerance="10"
     inkscape:pageopacity="0"
     inkscape:pageshadow="2"
     inkscape:window-width="640"
     inkscape:window-height="480"
     id="namedview2995"
     showgrid="false"
     inkscape:zoom="0.13169643"
     inkscape:cx="896"
     inkscape:cy="896"
     inkscape:window-x="0"
     inkscape:window-y="25"
     inkscape:window-maximized="0"
     inkscape:current-layer="svg2989" />
  <g
     transform="matrix(1,0,0,-1,212.61017,1346.1695)"
     id="g2991">
    <path fill="white"
       d="M 384,192 Q 384,112 328,56 272,0 192,0 112,0 56,56 0,112 0,192 q 0,80 56,136 56,56 136,56 80,0 136,-56 56,-56 56,-136 z M 896,69 Q 898,41 879,21 861,0 832,0 H 697 Q 672,0 654,16.5 636,33 634,58 612,287 449.5,449.5 287,612 58,634 33,636 16.5,654 0,672 0,697 v 135 q 0,29 21,47 17,17 43,17 h 5 Q 229,883 375,815.5 521,748 634,634 748,521 815.5,375 883,229 896,69 z m 512,-2 Q 1410,40 1390,20 1372,0 1344,0 H 1201 Q 1175,0 1156.5,17.5 1138,35 1137,60 1125,275 1036,468.5 947,662 804.5,804.5 662,947 468.5,1036 275,1125 60,1138 35,1139 17.5,1157.5 0,1176 0,1201 v 143 q 0,28 20,46 18,18 44,18 h 3 Q 329,1395 568.5,1288 808,1181 994,994 1181,808 1288,568.5 1395,329 1408,67 z"
       id="path2993"
       inkscape:connector-curvature="0"
        />
  </g>
</svg>
